# xmcd CD database file generated by Grip 3.3.0
# 
# Track frame offsets:
#       150
#       21990
#       35392
#       48635
#       68855
#       86862
#       128792
#       149125
#       162835
#       177442
#       191650
#       216375
# 
# Disc length: 3042 seconds
# 
# Revision: 11
# Processed by: cddbd v1.5.2PL0 Copyright (c) Steve Scherf et al.
# Submitted via: Grip 3.3.0
# 
DISCID=bc0be00c
DTITLE=Taj Mahal - Taj's Blues
DYEAR=1992
DGENRE=Blues
TTITLE0=Leaving Trunk
TTITLE1=Statesboro Blues
TTITLE2=Everbody's Got To Change Sometime
TTITLE3=Bound To Love Me Some
TTITLE4=Frankie and Albert
TTITLE5=East Bay Woman
TTITLE6=Dust My Broom
TTITLE7=Corinna
TTITLE8=Jellyroll
TTITLE9=Fishin' Blues
TTITLE10=Sounder Medley: Needed Time #2/Curiosity Blues/Horse Shoes/Needed Time
TTITLE10=#3
TTITLE11=Country Blues #1
EXTD=YEAR: 1996
EXTT0=
EXTT1=
EXTT2=
EXTT3=
EXTT4=
EXTT5=
EXTT6=
EXTT7=
EXTT8=
EXTT9=
EXTT10=
EXTT11=
PLAYORDER=
